<?xml version="1.0" encoding="UTF-8" standalone="no"?>
<!-- Created with Inkscape (http://www.inkscape.org/) -->

<svg
   version="1.1"
   id="svg1066"
   width="11338.587"
   height="11338.587"
   viewBox="0 0 11338.587 11338.587"
   xmlns="http://www.w3.org/2000/svg"
   xmlns:svg="http://www.w3.org/2000/svg">
  <defs
     id="defs1070">
    <clipPath
       clipPathUnits="userSpaceOnUse"
       id="clipPath1082">
      <path
         d="M 0,8503.937 H 8503.937 V 0 H 0 Z"
         id="path1080" />
    </clipPath>
  </defs>
  <g
     id="g1074"
     transform="matrix(1.3333333,0,0,-1.3333333,0,11338.587)">
    <g
       id="g1076">
      <g
         id="g1078"
         clip-path="url(#clipPath1082)">
        <g
           id="g1084"
           transform="translate(4063.0559,4279.252)">
          <path
             d="m 0,0 h -90.624 c -2.448,0 -4.722,-0.463 -6.815,-1.38 -2.1,-0.917 -3.935,-2.161 -5.511,-3.737 -1.577,-1.577 -2.82,-3.411 -3.738,-5.512 -0.916,-2.1 -1.379,-4.373 -1.379,-6.815 0,-2.448 0.463,-4.723 1.379,-6.823 0.918,-2.099 2.161,-3.934 3.738,-5.511 1.576,-1.569 3.411,-2.82 5.511,-3.737 2.093,-0.918 4.367,-1.38 6.815,-1.38 h 72.798 c 1.312,0 2.449,-0.478 3.412,-1.44 0.963,-0.963 1.44,-2.145 1.44,-3.54 0,-1.312 -0.477,-2.426 -1.44,-3.343 -0.963,-0.918 -2.1,-1.38 -3.412,-1.38 h -91.01 c -1.751,0 -3.237,-0.614 -4.465,-1.835 -1.22,-1.228 -1.834,-2.714 -1.834,-4.457 0,-1.752 0.614,-3.237 1.834,-4.465 1.228,-1.221 2.714,-1.835 4.465,-1.835 h 90.487 c 2.442,0 4.739,0.44 6.883,1.312 2.146,0.871 4.004,2.1 5.572,3.676 1.577,1.57 2.821,3.405 3.738,5.504 0.925,2.1 1.38,4.374 1.38,6.823 0,2.448 -0.455,4.737 -1.38,6.883 -0.917,2.146 -2.161,4.003 -3.738,5.579 -1.568,1.57 -3.426,2.82 -5.572,3.738 -2.144,0.917 -4.441,1.372 -6.883,1.372 h -72.532 c -1.312,0 -2.472,0.485 -3.48,1.448 -1.008,0.963 -1.509,2.1 -1.509,3.411 0,1.395 0.501,2.555 1.509,3.472 1.008,0.917 2.168,1.38 3.48,1.38 H 0 c 1.743,0 3.229,0.606 4.457,1.834 1.221,1.221 1.835,2.707 1.835,4.458 0,1.751 -0.614,3.237 -1.835,4.466 C 3.229,-0.614 1.743,0 0,0"
             style="fill:#2d70fd;fill-opacity:1;fill-rule:nonzero;stroke:none"
             id="path1086" />
        </g>
        <g
           id="g1088"
           transform="translate(3946.3643,4277.4175)">
          <path
             d="m 0,0 c -1.228,1.22 -2.714,1.834 -4.457,1.834 h -90.622 c -2.45,0 -4.723,-0.462 -6.816,-1.379 -2.1,-0.918 -3.934,-2.161 -5.511,-3.738 -1.577,-1.576 -2.82,-3.411 -3.738,-5.511 -0.917,-2.1 -1.379,-4.374 -1.379,-6.815 0,-2.449 0.462,-4.723 1.379,-6.823 0.918,-2.1 2.161,-3.934 3.738,-5.511 1.577,-1.569 3.411,-2.82 5.511,-3.738 2.093,-0.917 4.366,-1.379 6.816,-1.379 h 72.798 c 1.311,0 2.448,-0.478 3.411,-1.44 0.963,-0.963 1.44,-2.146 1.44,-3.541 0,-1.312 -0.477,-2.425 -1.44,-3.343 -0.963,-0.917 -2.1,-1.379 -3.411,-1.379 h -91.011 c -1.752,0 -3.238,-0.614 -4.466,-1.836 -1.221,-1.228 -1.835,-2.714 -1.835,-4.457 0,-1.751 0.614,-3.237 1.835,-4.465 1.228,-1.22 2.714,-1.834 4.466,-1.834 h 90.488 c 2.441,0 4.738,0.439 6.883,1.311 2.145,0.872 4.002,2.101 5.572,3.677 1.576,1.569 2.82,3.404 3.737,5.504 0.925,2.1 1.38,4.373 1.38,6.822 0,2.449 -0.455,4.738 -1.38,6.884 -0.917,2.145 -2.161,4.002 -3.737,5.579 -1.57,1.569 -3.427,2.82 -5.572,3.738 -2.145,0.916 -4.442,1.371 -6.883,1.371 h -72.533 c -1.312,0 -2.472,0.485 -3.48,1.448 -1.009,0.963 -1.508,2.101 -1.508,3.412 0,1.395 0.499,2.554 1.508,3.472 1.008,0.917 2.168,1.379 3.48,1.379 h 90.88 c 1.743,0 3.229,0.607 4.457,1.835 1.221,1.221 1.835,2.707 1.835,4.458 C 1.835,-2.715 1.221,-1.228 0,0"
             style="fill:#2d70fd;fill-opacity:1;fill-rule:nonzero;stroke:none"
             id="path1090" />
        </g>
        <g
           id="g1092"
           transform="translate(4186.3623,4279.252)">
          <path
             d="m 0,0 c -1.494,0 -2.979,-0.614 -4.465,-1.834 -5.686,-4.989 -10.561,-8.878 -14.624,-11.675 -4.063,-2.805 -7.74,-4.897 -11.015,-6.3 -3.282,-1.402 -6.382,-2.252 -9.316,-2.555 -2.927,-0.31 -6.095,-0.462 -9.507,-0.462 -3.411,0 -6.602,0.174 -9.574,0.523 -2.972,0.349 -6.148,1.228 -9.514,2.623 -3.366,1.403 -7.081,3.502 -11.144,6.3 -4.071,2.797 -8.9,6.64 -14.495,11.546 -0.704,0.522 -1.401,0.954 -2.099,1.311 -0.697,0.34 -1.486,0.523 -2.358,0.523 -1.751,0 -3.237,-0.614 -4.465,-1.834 -1.22,-1.229 -1.834,-2.715 -1.834,-4.466 v -44.59 c 0,-1.752 0.614,-3.237 1.834,-4.465 1.228,-1.221 2.714,-1.835 4.465,-1.835 1.744,0 3.229,0.614 4.457,1.835 1.221,1.228 1.835,2.713 1.835,4.465 v 31.081 c 3.935,-3.146 7.672,-5.769 11.212,-7.868 3.548,-2.101 7.043,-3.783 10.499,-5.049 3.45,-1.266 6.907,-2.169 10.356,-2.691 3.457,-0.524 7.065,-0.79 10.825,-0.79 3.495,0 6.951,0.266 10.363,0.79 3.412,0.522 6.838,1.425 10.295,2.691 3.449,1.266 6.997,2.948 10.62,5.049 3.632,2.099 7.415,4.722 11.349,7.868 V -50.89 c 0,-1.752 0.614,-3.237 1.835,-4.465 1.228,-1.221 2.714,-1.835 4.465,-1.835 1.743,0 3.229,0.614 4.457,1.835 1.221,1.228 1.835,2.713 1.835,4.465 V -6.3 c 0,1.751 -0.614,3.237 -1.835,4.466 C 3.229,-0.614 1.743,0 0,0"
             style="fill:#2d70fd;fill-opacity:1;fill-rule:nonzero;stroke:none"
             id="path1094" />
        </g>
        <g
           id="g1096"
           transform="translate(4306.3047,4245.4717)">
          <path
             d="m 0,0 c -0.394,-1.88 -1.136,-3.601 -2.229,-5.178 -1.091,-1.576 -2.599,-2.911 -4.525,-4.002 -1.925,-1.092 -4.374,-1.637 -7.346,-1.637 h -52.989 c -3.063,0 -5.534,0.545 -7.414,1.637 -1.88,1.091 -3.366,2.426 -4.458,4.002 -1.092,1.577 -1.835,3.298 -2.228,5.178 -0.395,1.88 -0.592,3.609 -0.592,5.186 0,1.576 0.197,3.297 0.592,5.177 0.393,1.88 1.136,3.608 2.228,5.185 1.092,1.569 2.578,2.904 4.458,3.995 1.88,1.1 4.351,1.645 7.414,1.645 H -14.1 c 2.972,0 5.421,-0.545 7.346,-1.645 1.926,-1.091 3.434,-2.426 4.525,-3.995 C -1.136,13.971 -0.394,12.243 0,10.363 0.395,8.483 0.592,6.762 0.592,5.186 0.592,3.609 0.395,1.88 0,0 m 6.687,24.069 c -1.964,2.714 -4.352,4.966 -7.149,6.754 -2.797,1.797 -5.989,2.775 -9.574,2.957 h -59.805 c -3.761,0 -7.134,-0.88 -10.106,-2.623 -2.971,-1.751 -5.503,-4.002 -7.603,-6.754 -2.1,-2.76 -3.699,-5.822 -4.791,-9.188 -1.092,-3.366 -1.638,-6.71 -1.638,-10.029 0,-3.238 0.524,-6.52 1.577,-9.841 1.047,-3.32 2.555,-6.337 4.526,-9.051 1.964,-2.706 4.344,-4.958 7.148,-6.754 2.798,-1.79 5.989,-2.775 9.575,-2.95 h 59.805 c 3.76,0 7.126,0.872 10.105,2.623 2.972,1.752 5.504,4.003 7.604,6.755 2.1,2.752 3.692,5.814 4.791,9.18 1.092,3.366 1.638,6.709 1.638,10.038 0,3.229 -0.524,6.511 -1.577,9.839 -1.047,3.32 -2.555,6.338 -4.526,9.044"
             style="fill:#2d70fd;fill-opacity:1;fill-rule:nonzero;stroke:none"
             id="path1098" />
        </g>
        <g
           id="g1100"
           transform="translate(4435.042,4234.6543)">
          <path
             d="m 0,0 h -78.696 c -1.311,0 -2.471,0.477 -3.479,1.44 -1.009,0.962 -1.509,2.1 -1.509,3.412 v 33.446 c 0,1.75 -0.637,3.237 -1.903,4.465 -1.266,1.22 -2.729,1.835 -4.389,1.835 -1.752,0 -3.237,-0.615 -4.465,-1.835 -1.221,-1.228 -1.835,-2.715 -1.835,-4.465 V 4.852 c 0,-2.45 0.478,-4.723 1.44,-6.816 0.963,-2.1 2.252,-3.942 3.875,-5.511 1.614,-1.576 3.517,-2.82 5.7,-3.738 2.191,-0.916 4.503,-1.379 6.951,-1.379 H 0 c 1.744,0 3.229,0.614 4.458,1.834 1.22,1.228 1.834,2.714 1.834,4.466 0,1.743 -0.614,3.229 -1.834,4.457 C 3.229,-0.614 1.744,0 0,0"
             style="fill:#2d70fd;fill-opacity:1;fill-rule:nonzero;stroke:none"
             id="path1102" />
        </g>
        <g
           id="g1104"
           transform="translate(4490.6411,4248.9614)">
          <path
             d="M 0,0 1.259,1.672 12.34,16.387 c 0.523,0.697 1.243,1.463 2.16,2.297 0.918,0.826 1.858,1.243 2.821,1.243 0.962,0 1.903,-0.417 2.82,-1.243 0.917,-0.834 1.683,-1.6 2.297,-2.297 L 34.714,0 Z m 62.442,-16.143 -31.87,42.628 c -1.494,2.008 -3.411,3.586 -5.777,4.723 -2.357,1.136 -4.851,1.706 -7.474,1.706 -2.798,0 -5.421,-0.638 -7.869,-1.903 C 7.003,29.745 5.04,28.1 3.554,26.091 l -18.147,-24.419 -9.358,-12.591 -4.372,-5.883 c -0.872,-0.962 -1.311,-2.228 -1.311,-3.798 0,-1.751 0.613,-3.237 1.834,-4.465 1.228,-1.22 2.714,-1.834 4.465,-1.834 1.918,0 3.54,0.789 4.852,2.357 l 8.999,11.95 h 53.356 c 0.086,0 0.155,0.043 0.24,0.046 l 8.884,-11.859 c 1.228,-1.66 2.888,-2.494 4.988,-2.494 1.744,0 3.229,0.614 4.458,1.834 1.228,1.228 1.834,2.714 1.834,4.465 0,0.872 -0.174,1.675 -0.523,2.426 -0.349,0.735 -0.788,1.418 -1.311,2.031"
             style="fill:#2d70fd;fill-opacity:1;fill-rule:nonzero;stroke:none"
             id="path1106" />
        </g>
        <g
           id="g1108"
           transform="translate(4663.4585,4236.0942)">
          <path
             d="M 0,0 C -1.007,-0.963 -2.16,-1.44 -3.471,-1.44 H -76.27 V 8.263 H -3.471 C -2.16,8.263 -1.007,7.809 0,6.891 1.009,5.973 1.509,4.813 1.509,3.412 1.509,2.1 1.009,0.962 0,0 m 9.643,14.434 c 1.221,1.485 2.206,3.169 2.949,5.049 0.743,1.88 1.115,3.912 1.115,6.094 0,2.449 -0.455,4.746 -1.373,6.891 -0.917,2.138 -2.19,3.996 -3.805,5.573 -1.622,1.576 -3.502,2.819 -5.64,3.737 -2.146,0.917 -4.443,1.38 -6.884,1.38 h -78.567 c -1.751,0 -3.237,-0.615 -4.465,-1.835 -1.22,-1.228 -1.834,-2.715 -1.834,-4.465 v -6.293 h 12.591 72.799 c 1.311,0 2.464,-0.507 3.471,-1.508 1.009,-1.008 1.509,-2.168 1.509,-3.48 0,-1.394 -0.478,-2.531 -1.441,-3.41 -0.962,-0.873 -2.099,-1.313 -3.41,-1.313 H -76.27 L -88.861,20.785 V -7.732 c 0,-1.752 0.614,-3.238 1.834,-4.466 1.228,-1.22 2.714,-1.834 4.465,-1.834 h 78.567 c 2.441,0 4.738,0.463 6.884,1.379 2.138,0.918 4.018,2.162 5.64,3.738 1.615,1.569 2.888,3.411 3.805,5.511 0.918,2.093 1.373,4.366 1.373,6.816 0,2.099 -0.372,4.085 -1.115,5.965 -0.743,1.88 -1.728,3.563 -2.949,5.057"
             style="fill:#2d70fd;fill-opacity:1;fill-rule:nonzero;stroke:none"
             id="path1110" />
        </g>
      </g>
    </g>
  </g>
</svg>
